<svg xmlns="http://www.w3.org/2000/svg" viewBox="0 0 202 202">
  <g fill="#E03E4F">
	  <circle r="12.7" cy="54.6" cx="59.1"/>
  	  <path d="M103.76 50.168c-.5 2.5-1.4 4.9-2.5 7.1-6.6 13.2-22.2 21.2-23 21.6-.5.3-1.1.4-1.7.5 0 0-.7.1-1.9.2l6.6 34.6 12.7 48c.4 1.7.2 3.4-.5 4.8h-12.1c-.2-.4-.4-.9-.5-1.3l-12.9-48.6-3.6.7v45.7c0 1.3-.4 2.5-1 3.5h-11.6c-.6-1-1-2.2-1-3.5v-48.1c0-.4 0-.8.1-1.1l-4.8-25.1c-7.9 13.9-2.1 32.8-2 33 .8 2.6-.6 5.4-3.2 6.2-.5.2-1 .2-1.5.2-2.1 0-4-1.3-4.7-3.4-.4-1.4-10.3-33.4 11.4-51 .7-.6 1.5-.9 2.4-1 13.3-2 23-3.1 26.1-3.4 3.4-1.9 17.3-10.3 19.5-21.4.5-2.7 3.1-4.4 5.8-3.9.5.1 1 .3 1.4.5 1.9.9 3 3 2.5 5.2z"/>

    <circle r="12.7" cy="54.6" cx="143.5"/>
    <path d="M98.9 50.3c.5 2.5 1.4 4.9 2.5 7.1 6.6 13.2 22.2 21.2 23 21.6.5.3 1.1.4 1.7.5 0 0 .7.1 1.9.2l-6.6 34.6-12.7 48c-.4 1.7-.2 3.4.5 4.8h12.1c.2-.4.4-.9.5-1.3l12.9-48.6 3.6.7v45.7c0 1.3.4 2.5 1 3.5h11.6c.6-1 1-2.2 1-3.5v-48.1c0-.4 0-.8-.1-1.1l4.8-25.1c7.9 13.9 2.1 32.8 2 33-.8 2.6.6 5.4 3.2 6.2.5.2 1 .2 1.5.2 2.1 0 4-1.3 4.7-3.4.4-1.4 10.3-33.4-11.4-51-.7-.6-1.5-.9-2.4-1-13.3-2-23-3.1-26.1-3.4-3.4-1.9-17.3-10.3-19.5-21.4-.5-2.7-3.1-4.4-5.8-3.9-.5.1-1 .3-1.4.5-1.9.9-3 3-2.5 5.2z" stroke="#fff"/>

	 <path d="M150.8 165H28.5c17.9 19.7 43.8 32 72.5 32 28.7 0 54.6-12.4 72.5-32h-22.7z"/>
	 <path d="M101 12.8c48.6 0 88.2 39.6 88.2 88.2s-39.6 88.2-88.2 88.2-88.2-39.6-88.2-88.2S52.4 12.8 101 12.8M101 1C45.8 1 1 45.8 1 101s44.8 100 100 100 100-44.8 100-100S156.2 1 101 1z"/>
	 <path d="M101 14.5c47.7 0 86.5 38.8 86.5 86.5s-38.8 86.5-86.5 86.5-86.5-38.8-86.5-86.5S53.3 14.5 101 14.5m0-11.6C46.8 2.9 2.9 46.8 2.9 101s43.9 98.1 98.1 98.1 98.1-43.9 98.1-98.1S155.2 2.9 101 2.9z"/>
  </g>

</svg>