<svg baseProfile="tiny" xmlns="http://www.w3.org/2000/svg" viewBox="0 0 202 202">

  <g fill="#E03E4F">
    <path d="M187.2 89.4c-2.9-.6-5.9-1.3-9.2-2 .1-2.4.1-4.2.2-6.8-28.3-7.8-56.5-15.9-84.6-9.2-17.8-18.4-42.5-26.8-68-34.6-1.1 1.3-2.2 2.7-3.3 4 22 7.5 44.2 13.9 61.1 28.8 2.3 2 4 5.8 3.4 8-6.4 23.7-13.3 47.2-20.5 71.9-18.4-15.3-40.7-22.6-63-30.3 1.3 6.9 3.2 13.5 5.8 19.8 4.7 1.7 9.4 3.4 14.1 5.2 13.2 5 25.4 11.4 35.3 20.8 2.9 2.7 10.8 5.3 14.4 4.4 16.3-3.7 33.2-.8 50.1 2.4 12.4 2.4 24.5 6.1 36.8 9.2.4-.3.7-.5 1-.8 8.9-30.2 17.6-60.5 26.4-90.8zM75.6 152c.4-2.1.6-3.7 1.1-5.3 6.2-21.6 12.6-43 18.4-64.7 1.2-4.6 4.3-6.5 9.9-7.1 12.8-1.3 25.5-.7 42.1 3.1 7.4 1.7 15 3.4 23.5 5.4-7.5 26-14.8 51.4-22.2 77.1-24-5.1-48.1-11.9-72.8-8.5zM1.8 101.2c0 2.7.1 5.5.3 8.1C8.6 86.8 15 64.5 21.6 41.6 9.2 58.3 1.8 78.9 1.8 101.2z"/>
    <path d="M102.2 107.1c5.5.8 7-1.9 7.6-4.4.5-2 .7-4.1.9-6.1.2-2.1.4-4 .9-6.1 1.7-6.6 7-8.7 13.6-7.8l1.6.2-1 4-1.4-.2c-4.6-.7-6.7 1.4-7.7 5.3-.4 1.7-.6 3.4-.8 5.2-.1 1.8-.4 3.6-.9 5.5-1.1 4.6-3.9 6.6-7.6 7v.1c3.3 1.3 4.8 4 3.6 8.6-.5 1.9-1.2 3.7-1.9 5.4-.8 1.8-1.4 3.4-1.9 5.1-1 4 .2 6.5 4.5 7.1l1.4.2-1 3.9-1.6-.2c-6.4-.9-10.6-4.2-8.7-11.5.5-1.9 1.3-3.9 2.1-5.8s1.6-3.8 2.1-5.7c.6-2.2.6-5.4-4.9-6.2l1.1-3.6zM147.1 117.4c-5.5-.8-7.1 2.2-7.6 4.4-.5 1.9-.7 3.9-.9 5.9-.2 2-.4 4-.9 6-1.9 7.3-7.4 9.1-13.7 8.2l-1.6-.2 1-4 1.3.2c4.4.6 6.8-1.3 7.8-5.4.4-1.7.6-3.4.8-5.2.1-1.8.3-3.6.8-5.5 1.2-4.6 4-6.7 7.6-7v-.1c-3.2-1.4-4.8-4-3.6-8.6.5-1.9 1.2-3.6 2-5.4.7-1.7 1.4-3.4 1.8-5 1-3.9-.1-6.3-4.5-7.1l-1.4-.2 1-4 1.5.2c6.6.9 10.6 4.4 8.9 11-.5 2-1.3 3.9-2.1 5.9-.8 2-1.6 3.9-2.2 5.9-.6 2.5-.6 5.4 4.9 6.2l-.9 3.8z"/>
  </g>

  <g fill="#E03E4F">
    <path d="M101.5 12.8c48.5 0 87.9 39.4 87.9 87.9s-39.4 87.9-87.9 87.9c-48.5 0-87.9-39.4-87.9-87.9s39.5-87.9 87.9-87.9m0-11.8c-55 0-99.7 44.6-99.7 99.7s44.6 99.7 99.7 99.7 99.7-44.6 99.7-99.7S156.6 1 101.5 1z"/>
    <path d="M100.5 13.3c48.5 0 88 39.5 88 88s-39.5 88-88 88-88-39.5-88-88 39.5-88 88-88m0-11.8C45.4 1.5.7 46.2.7 101.3S45.4 201 100.5 201s99.8-44.7 99.8-99.8-44.7-99.7-99.8-99.7z"/>
  </g>

</svg>