<svg baseProfile="tiny" xmlns="http://www.w3.org/2000/svg" viewBox="0 0 202 202">
  <g fill="#E03E4F">
    <path d="M160.4 63.5L125 59.8V42.7l-1.3-.8c-16.1-9.6-30.8-3.6-31.4-3.4l-1.7.7v5.6c-7.3-.2-12.4 1.9-12.8 2.1l-1.7.7v7.1L56 52.6c-2-.2-3.8 1.4-3.9 3.4l24 2.5v4.9l-35.5-3.7c-2.1-.2-3.9 1.4-3.9 3.5v6.6l44 30.2c.6-1.4 2.1-2.3 3.8-2.2l18 1.7c2.1.2 3.7 1.9 3.8 4l41.9-21.2v-8.2c0-1.8-1.4-3.3-3.2-3.5L110.6 67v-4.9l9 .9v.2h2l28.9 3c1.8.2 3.2 1.7 3.2 3.5v62.1s-.1 9-.1 11.7c0 3.5-5.3 3.8-5.3-.4V88.4l-41.9 21.2v5.1c0 2.1-1.6 3.7-3.7 3.7h-.4l-18-1.7c-2.2-.2-3.9-2.1-3.9-4.2v-6l-43.6-30v58.1c0 1.2.6 2.2 1.5 2.9 1.9 4.2 6 7.7 13.8 8.7 12.2 1.6 84.4 10.7 93.1 11.1 8.3.4 17.3-7.4 18.2-18.3.1-.2.1-.5.1-.8V67c0-1.8-1.3-3.3-3.1-3.5zM81.7 51.4c1.8-.5 5-1.2 9-1.1v5.9l-9-.9v-3.9zm23.4 6.3l-9-.9v-5.9c2.8.6 5.9 1.6 9 3.3v3.5zm0 8.8L81.7 64v-4.9l23.4 2.4v5zm5.5-8.2V51l-1.3-.8c-4.6-2.7-9.1-4.2-13.1-4.9V43c3.7-1 13.2-2.7 23.4 2.8v13.4l-9-.9z"/>
    <path d="M82.7 112.4c0 1 .8 1.8 1.8 1.9l18 1.7c.9.1 1.5-.5 1.5-1.4v-11c0-1-.8-1.8-1.8-1.9l-18-1.7H84c-.8 0-1.4.6-1.4 1.4v11z"/>
  </g>

  <path fill="#E03E4F" d="M101 12.8c48.6 0 88.2 39.6 88.2 88.2s-39.6 88.2-88.2 88.2-88.2-39.6-88.2-88.2S52.4 12.8 101 12.8M101 1C45.8 1 1 45.8 1 101s44.8 100 100 100 100-44.8 100-100S156.2 1 101 1z"/>
</svg>