<svg baseProfile="tiny" xmlns="http://www.w3.org/2000/svg" viewBox="0 0 202 202">

  <g fill="#E03E4F">
    <path fill-opacity="0.8" d="M31.1 109.9c2.4 3.7 8 7 9.9 7.8 1.9.8 7.1 2.5 12.4 7.7l.4.4c-.5-1.5-.7-3.1-.3-4.5.3-1.4 1.1-2.5 2.4-3.2 1-.6 1.9-.9 2.9-1-1.7-2.1-4.1-4.2-7.3-6.1l2.2-1.8s4.7-1.1 6.7-1.1h.2c1.9 0 3.7.5 3.7.5l1.9.5c.2-1.1.5-2.3 1.1-3.2.8-1.2 1.9-1.9 3.3-2.1.5-.1 1-.1 1.5-.1 5 0 6.4 4.7 6.8 6.2.1.4.4 1.4.9 2.9l2.7.7v-5.2c0-.5-.1-1.8.2-3.3-6.2-2.1-14.1-4.6-15.6-5.1-2.6-.8.3-2.7.3-2.7l25.9-.3c-1.7-1.5-3.1-4-1.9-7.4.1-.4.3-.8.5-1.1-2.7 0-19.5.2-24.3.2h-1.1c-2.7 0-.4-1.8-.4-1.8s5.6-1.7 11.4-3.5c-1.1-.5-2.7-1.4-3.5-3.1-.7-1.3-.7-2.8-.1-4.2 0-.1.1-.2.1-.3-5.4 1.4-10.7 2.8-11.5 3-.2 0-.4.1-.6.1-1 0-.8-.9-.8-.9s15.8-11 16.9-11.8c1.1-.9 3.5-2.6 1.7-5.7-.5-.8-1.3-1.1-2.3-1.1-2.7 0-6.4 2.4-6.4 2.4s-13.5 8.2-14.8 8.9c-1.1.6-1.8.7-2.1.7H54l-10.5.7c-14.2 2.4-17.9 9.3-17.9 9.3L14 81.2c-1.9 7.9-2.6 16-2.3 24l15.7-.9c0 .1 1.3 1.9 3.7 5.6z"/>

    <path fill-opacity="0.2" d="M99.2 48.3c-3.7 2.4-7 8-7.8 9.9-.8 1.9-2.5 7.1-7.7 12.4-5.2 5.3-6.1 3.2-7.3 6.2-1.2 2.9 3 4 3 4h.2c1.5 0 11.5-.5 18.5-12.2l1.8 2.2s1.1 4.7 1.1 6.7c.1 2-.5 3.9-.5 3.9l-1 3.9c.2 0 .4.1.5.1l8.3 2.2c.5-1.7.9-2.9 1.1-3.4.2-.8.6-1.1.9-1.1.8 0 1.8 1.4 1.8 1.4v4.1l8.6 2.3v-7.2c0-1 .3-1.3.6-1.3.5 0 1.3.9 1.3.9s1.2 3.9 2.7 8.5c.3 0 .6.1.9.1h.2c.7 0 2.1-.2 3.5-.5-9.9-8-9.6-17.9-9.6-18.4v-.3l.1-.3c.5-1.9 2.3-5.2 5.7-5.2.7 0 1.4.1 2 .4 2.2.9 2.9 2 3.6 3.3.5.9 1.1 2.1 3.5 4.5 2.9 2.8 5.7 4.5 7.9 5.6-2.1-3.5-4.2-7-4.6-7.6-.7-1.3-.7-2.1-.7-2.1l-.8-10.6c-2.4-14.2-9.3-17.9-9.3-17.9l.2-25.5c-8.2-2.7-16.6-4.1-25-4.4l1.7 31.7c0 .1-1.8 1.3-5.4 3.7zM95.1 101.6c.4.5.6 1 .8 1.6l7.2-.1c.2-.7.5-1.5.7-2.2-3.4-1.1-6.3-2.1-7.8-2.6l-.9 3.3z"/>

    <path fill-opacity="0.4" d="M107.8 117.2h-6c-.2.7-.4 1.3-.7 2 2-.6 4.4-1.3 6.7-2zM106.7 169.1c3.7-2.4 7-8 7.8-9.9.8-1.9 2.5-7.1 7.7-12.4 5.2-5.3 6.1-3.2 7.3-6.2.8-1.9-.7-3-1.8-3.6-3.3 2-7.8 4.7-10.6 6.4-.8.5-4.3 2.6-7.5 2.8-.6.8-1.1 1.6-1.7 2.6l-1.8-2.2s-.1-.5-.3-1.3c-.5-.4-1-.9-1.3-1.5-1.2-2.1-1.9-5.2 1.2-8.3l1-3.7c-1.8.5-3.5.9-5.1 1.4h-.2c-.2 0-2 .4-4 .4h-.8c-.2.5-.5.8-.8.8-.6 0-1.2-.7-1.6-1.1-3.1-.9-3.8-3-4-4.1-.6-3.3.7-5.8 3.7-7.4v-4.4h-.1c-2.2 0-5.2-.4-7.1-2.5-.7-.7-1.1-1.6-1.4-2.5.1 6.8.1 19.5.1 21.5 0 1-.3 1.3-.6 1.3-.5 0-1.3-.9-1.3-.9s-6.6-21.3-7.3-23.5c-.6-2-1.5-4.2-4.2-4.2-.3 0-.6 0-1 .1-3.4.6-1.9 7.9-1.9 7.9s5.8 21.7 6.2 23.4c.3 1.2-.3 1.4-.6 1.4h-.2s-10.7-15.8-11.6-16.9c-.6-.8-1.7-2.4-3.6-2.4-.6 0-1.4.2-2.2.7-3.1 1.8 1.3 8.7 1.3 8.7s8.2 13.5 8.9 14.8c.7 1.3.7 2.1.7 2.1l.8 10.5c2.4 14.2 9.3 17.9 9.3 17.9l-.1 12.4c7.9 2 16 3 24.1 2.8l-.9-17.3c0 .1 1.8-1.2 5.5-3.6zM89.3 101.4H89c-4.4 0-3.9 6.6-3.9 6.6v.8c.8-3.9 4-5.6 7.1-5.6h.6c-.6-.9-1.7-1.7-3.5-1.8z"/>

    <path fill-opacity="0.6" d="M155.4 92.9c-2.4-3.7-8-7-9.9-7.8-1.9-.8-7.1-2.5-12.4-7.7-5.3-5.2-3.2-6.1-6.2-7.3-.4-.1-.7-.2-1-.2-2.2 0-3 3.2-3 3.2s-.5 11.2 12.2 18.7l-2.2 1.8s-4.7 1.1-6.7 1.1h-.2c-1.9 0-3.7-.5-3.7-.5L99 88.1s-.7-.2-1.5-.2c-1.2 0-2.9.4-3.7 2.5-1.3 3.5 2 4.9 2 4.9s21.1 7 23.7 7.7c2.6.8-.3 2.7-.3 2.7l-26.8.3h-.3c-.9 0-4.2.3-4.5 4.4-.2 3.8 4.1 4.2 5.9 4.2h.7s19.4-.2 24.7-.2h1.1c2.7 0 .4 1.8.4 1.8s-21.3 6.6-23.5 7.3c-2.3.7-4.7 1.8-4.1 5.2.3 1.8 2.5 2.2 4.5 2.2 1.8 0 3.4-.3 3.4-.3s21.7-5.8 23.4-6.2c.2 0 .4-.1.6-.1 1 0 .8.9.8.9s-15.8 10.7-16.9 11.6c-1.1.9-3.5 2.6-1.7 5.7.5.8 1.3 1.1 2.3 1.1 2.7 0 6.4-2.4 6.4-2.4s13.5-8.2 14.8-8.9c1.1-.6 1.8-.7 2.1-.7h.1l10.5-.8c14.2-2.4 17.9-9.3 17.9-9.3l25.5.2c1.9-8.2 2.6-16.6 2.2-24.9l-29.6 1.6s-1.3-1.8-3.7-5.5z"/>
  </g>

  <g fill="#E03E4F">

    <path d="M92.1 85.5c-.8 0-7.2.1-13.4.1 5.3-1.7 10.7-3.3 11.7-3.6 4.1-1.2 6.1-3.5 6.2-6.7-7.1 7.8-15.2 8.3-17 8.3H79l-.3-.1c-.2-.1-.6-.2-1.2-.4-5.8 1.8-11.4 3.5-11.4 3.5s-2.3 1.8.4 1.8h1.1c4.8 0 21.6-.1 24.3-.2.7-1.3 1.7-2.2 3-2.7-.7-.1-1.3-.1-1.9-.1-.5.1-.8.1-.9.1zM80.6 115.8l1.7.5v-2.9l-2.7-.7c.3.9.7 1.9 1 3.1zM43.5 72l10.5-.8h.1c.2 0 1-.1 2.1-.7 1.3-.8 14.8-8.9 14.8-8.9s3.7-2.4 6.4-2.4c1 0 1.8.3 2.3 1.1 1.8 3.1-.6 4.9-1.7 5.7-1.1.9-16.9 11.6-16.9 11.6s-.2.9.8.9c.2 0 .3 0 .6-.1.8-.2 6.1-1.6 11.5-3 .9-2 1.9-2.7 3.2-3.3.4-.2.8-.4 1.4-.8-1.7.5-3.5.9-5.2 1.4 3.2-2.2 5.9-4.1 6.4-4.4l.1-.1c4.4-3.4 3.7-6.9 2.3-9.3-.9-1.6-2.6-2.5-4.7-2.5-3.3 0-7.1 2.3-7.9 2.8-4.7 2.8-13.7 8.3-14.7 8.9-.3.2-.5.3-.7.3H53.9l-10.5.8h-.2c-11.5 2-16.8 6.8-18.8 9.3l-9.5-.1c-.2.9-.5 1.9-.7 2.8l11.6.1c-.2 0 3.5-6.9 17.7-9.3zM66.9 99.8c1.5.4 9.3 3 15.6 5.1.2-.9.4-1.8.9-2.7-2.3-.8-4.9-1.6-7.3-2.4l9.4-.1c1-.7 2.2-1.1 3.5-1.1h.5c1.4.1 2.5.4 3.3.9l.7-2.5c-.1-.1-.2-.1-.3-.2l-25.9.3s-3 1.9-.4 2.7zM60.5 108.1h-.2c-2 .1-6.7 1.1-6.7 1.1l-2.2 1.8c3.2 1.9 5.6 4 7.3 6.1.2 0 .5-.1.7-.1 1.5 0 2.6.5 3.6 1.2-1.4-2.3-3.4-4.6-6.1-6.8 1.4-.3 2.8-.5 3.5-.5h.2c1.4 0 2.9.4 2.9.4l2.5.7c0-.9 0-1.9.1-2.9l-1.9-.5c-.1 0-1.9-.5-3.7-.5zM56.1 130.7c-.5-.8-1.6-2.7-2.3-4.9l-.4-.4c-5.3-5.2-10.5-6.9-12.4-7.7-1.9-.8-7.5-4.1-9.9-7.8-2.4-3.6-3.7-5.5-3.7-5.5l-15.7.9c0 .9.1 1.9.2 2.8l14.1-.8c.6.9 1.5 2.3 2.7 4.1 2.8 4.4 9.2 8 11.2 8.8.2.1.4.2.7.3 2.1.8 6.4 2.5 10.8 6.9 2.4 2.4 3 3.6 3.5 4.5.7 1.4 1.4 2.5 3.6 3.3.1.1.3.1.4.1-1.1-1.7-2.1-3.3-2.8-4.6z"/>

    <path d="M110.4 103c-.4-.1-.7-.2-1.1-.4v.4h1.1zM73.9 75.4c0 .1-.1.2-.1.3-.6 1.5-.5 2.9.1 4.2.8 1.7 2.4 2.6 3.5 3.1.6.2 1 .4 1.2.4l.3.1h.6c1.8 0 9.9-.5 17-8.3.4-.4.7-.8 1.1-1.2.3 1.4.5 2.8.5 3.5 0 1.2-.3 2.7-.4 3.1l-1.2 4.5c.3 0 .7-.1 1-.1.8 0 1.4.1 1.8.2l1-3.9s.6-2 .5-3.9c-.1-2-1.1-6.7-1.1-6.7L98 68.5c-6.9 11.8-16.9 12.2-18.5 12.2h-.2s-4.2-1.1-3-4c1.2-2.9 2-.9 7.3-6.2 5.2-5.3 6.9-10.5 7.7-12.4.8-1.9 4.1-7.5 7.8-9.9 3.6-2.4 5.5-3.7 5.5-3.7L102.9 13c-.9 0-1.9-.1-2.8-.1l1.7 30.3c-.9.6-2.3 1.5-4.1 2.7-4.4 2.8-8 9.2-8.8 11.2-.1.2-.2.4-.3.7-.8 2.1-2.5 6.4-6.9 10.8-1.4 1.4-2.4 2.2-3.2 2.7-.5.4-1 .6-1.4.8-1.3.7-2.3 1.3-3.2 3.3zM92.8 99.5c.9.5 1.5 1 1.9 1.5.2.2.3.4.4.5l.9-3.4c-.5-.2-.9-.3-1-.3h-.2c-.5-.2-.9-.5-1.4-.8l-.6 2.5zM137 60.7l.8 10.5s-.1.8.7 2.1c.4.6 2.5 4.2 4.6 7.6 1.2.6 2.2 1 2.9 1.2.3.1.5.2.7.3.2.1.5.2.9.4-2.8-4.6-6.2-10.2-6.6-11-.2-.3-.3-.6-.3-.7v-.2l-.8-10.5v-.2c-2-11.5-6.8-16.8-9.3-18.8l.2-23.1c-.9-.3-1.9-.7-2.8-1l-.2 25.5c-.1 0 6.8 3.8 9.2 17.9zM121.1 82.3c-.3 0-.6.3-.6 1.3v7.2l2.5.6s.9.2 2 .4c-1.4-4.6-2.7-8.5-2.7-8.5s-.6-1-1.2-1zM110.2 83.1c-.4 0-.7.3-.9 1.1-.1.5-.5 1.8-1.1 3.4l3.8 1v-4.1c-.1 0-1-1.4-1.8-1.4zM106 103c.1-.4.3-.9.4-1.3l-2.7-.9c-.3.8-.5 1.5-.7 2.2h3z"/>

    <path d="M101.1 119.3c.2-.7.5-1.4.7-2h-2.9c-.3 1-.7 2-1 3 .8-.3 2-.6 3.2-1zM95.6 134.4c.3 0 .6-.2.8-.8-.9-.1-1.7-.2-2.4-.4.4.4 1.1 1.2 1.6 1.2zM107.8 148.9c.5-.9 1.1-1.8 1.7-2.6h-.4c-1.3 0-2.4-.4-3.4-1 .2.8.3 1.3.3 1.3l1.8 2.3zM127.6 137.1c1.1.6 2.6 1.7 1.8 3.6-1.2 2.9-2 .9-7.3 6.2-5.2 5.3-6.9 10.5-7.7 12.4-.8 1.9-4.1 7.5-7.8 9.9-3.6 2.4-5.5 3.7-5.5 3.7l.9 17.3c.9 0 1.9 0 2.8-.1l-.9-15.7c.9-.6 2.3-1.5 4.1-2.7 4.4-2.8 8-9.2 8.8-11.2.1-.2.2-.4.3-.7.8-2.1 2.5-6.4 6.9-10.8 2.4-2.4 3.6-3 4.5-3.5 1.4-.7 2.5-1.4 3.3-3.6.6-1.5.5-2.9-.1-4.2-.4-.8-1-1.5-1.7-2-.4.2-1.4.8-2.4 1.4zM68.8 156.7l-.8-10.5s.1-.8-.7-2.1c-.8-1.3-8.9-14.8-8.9-14.8s-4.4-6.9-1.3-8.7c.8-.5 1.5-.7 2.2-.7 1.8 0 2.9 1.5 3.6 2.4.9 1.1 11.6 16.9 11.6 16.9h.2c.3 0 .9-.2.6-1.4-.3-1.6-6.2-23.4-6.2-23.4s-1.5-7.3 1.9-7.9c.4-.1.7-.1 1-.1 2.6 0 3.6 2.2 4.2 4.2.7 2.3 7.3 23.5 7.3 23.5s.7.9 1.3.9c.3 0 .6-.3.6-1.3 0-2-.1-14.7-.1-21.5-.2-.7-.3-1.4-.2-2.2 0-.5.1-.9.2-1.3v-.8s-.6-6.6 3.9-6.6h.3c1.9.1 2.9.9 3.6 1.8h3.1c-.2-.5-.5-1-.8-1.6-.1-.2-.3-.4-.4-.5-.4-.5-1.1-1.1-1.9-1.5-.9-.5-1.9-.8-3.3-.9h-.5c-1.3 0-2.5.4-3.5 1.1-.4.2-.7.5-1 .9-.5.5-.8 1-1.1 1.6-.4.9-.7 1.8-.9 2.7-.3 1.5-.2 2.8-.2 3.3V121.6c-.6-2-1.2-4-1.8-5.7-.4-1.2-.7-2.2-1-3.1-.4-1.4-.8-2.5-.9-2.9-.5-1.5-1.9-6.2-6.8-6.2-.5 0-1 0-1.5.1-1.3.2-2.5 1-3.3 2.1-.6.9-1 2-1.1 3.2-.1 1-.2 2-.1 2.9.1 1.3.3 2.5.4 3v.2c.9 3.5 2.1 7.8 3.1 11.8-2.2-3.2-4.1-5.9-4.4-6.4l-.1-.1c-.4-.5-1.1-1.4-2.1-2.2-.9-.7-2.1-1.2-3.6-1.2-.2 0-.5 0-.7.1-1 .1-1.9.4-2.9 1-1.2.7-2 1.8-2.4 3.2-.3 1.4-.1 3 .3 4.5.7 2.2 1.8 4.1 2.3 4.9.8 1.3 1.8 2.9 2.8 4.6 2.7 4.4 5.7 9.4 6.1 10.1.2.3.3.6.3.7v.2l.8 10.5v.2c2 11.5 6.8 16.8 9.3 18.8l-.1 10.5c.9.3 1.9.5 2.8.8l.1-12.7c.1.1-6.8-3.6-9.3-17.8zM96.1 120.8c.1 0 .3-.1.4-.1v-3.4h-2.8v4.4c.8-.3 1.5-.6 2.4-.9zM106.7 134.6l.1-.1c.2-.2 1.1-.8 2.4-1.7l.5-1.8c-1 .3-2.1.6-3.1.8l-1 3.7c.3-.3.7-.6 1.1-.9z"/>

    <path d="M185.7 124.5c.2-.9.5-1.9.7-2.8l-25.5-.2s-3.7 6.9-17.9 9.3l-10.5.8h-.1c-.2 0-1 .1-2.1.7-1.3.8-14.8 8.9-14.8 8.9s-3.7 2.4-6.4 2.4c-1 0-1.8-.3-2.3-1.1-1.8-3.1.6-4.9 1.7-5.7 1.1-.9 16.9-11.6 16.9-11.6s.2-.9-.8-.9c-.2 0-.3 0-.6.1-1.6.3-23.4 6.2-23.4 6.2s-1.6.3-3.4.3c-2 0-4.1-.4-4.5-2.2-.6-3.4 1.8-4.5 4.1-5.2 2.3-.7 23.5-7.3 23.5-7.3s2.3-1.8-.4-1.8h-1.1c-5.3 0-24.7.2-24.7.2h-.7c-1.8 0-6.1-.4-5.9-4.2.2-4.1 3.5-4.4 4.5-4.4h.3l26.8-.3s2.9-1.9.3-2.7c-2.6-.8-23.7-7.7-23.7-7.7s-3.2-1.4-2-4.9c.7-2.1 2.4-2.5 3.7-2.5.9 0 1.5.2 1.5.2l23.3 6.1s1.8.5 3.7.5h.2c2-.1 6.7-1.1 6.7-1.1l2.2-1.8c-12.8-7.5-12.2-18.7-12.2-18.7s.9-3.2 3-3.2c.3 0 .6.1 1 .2 2.9 1.2.9 2 6.2 7.3 5.3 5.2 10.5 6.9 12.4 7.7 1.9.8 7.5 4.1 9.9 7.8 2.4 3.6 3.7 5.5 3.7 5.5l29.6-1.6c-.1-.9-.1-1.9-.2-2.8l-28 1.5c-.6-.9-1.5-2.3-2.7-4.1-2.5-3.9-7.7-7.1-10.3-8.4-.3-.2-.7-.3-.9-.4-.2-.1-.4-.2-.7-.3-.7-.3-1.7-.7-2.9-1.2-2.2-1.1-5.1-2.8-7.9-5.6-2.4-2.4-3-3.6-3.5-4.5-.7-1.4-1.4-2.5-3.6-3.3-.7-.3-1.4-.4-2-.4-3.4 0-5.2 3.3-5.7 5.2l-.1.3v.3c0 .5-.4 10.4 9.6 18.4-1.4.3-2.8.5-3.5.5h-.2c-.3 0-.6 0-.9-.1-1.1-.1-2-.4-2-.4l-2.5-.6-8.6-2.3-3.8-1-8.3-2.2c-.1 0-.3-.1-.5-.1-.4-.1-1.1-.2-1.8-.2-.4 0-.7 0-1 .1-.6.1-1.2.2-1.7.5-1.3.5-2.3 1.4-3 2.7-.2.4-.4.7-.5 1.1-1.2 3.4.2 5.9 1.9 7.4.1.1.2.1.3.2.5.3.9.6 1.4.8h.2c.1 0 .4.1 1 .3l7.8 2.6 2.7.9c1 .3 1.9.6 2.9.9.4.1.7.2 1.1.4h-7.4l-7.2.1H92.4c-3.1 0-6.3 1.8-7.1 5.6-.1.4-.2.9-.2 1.3 0 .8 0 1.5.2 2.2.3.9.7 1.8 1.4 2.5 1.9 2 4.9 2.5 7.1 2.5h14.1c-2.4.7-4.7 1.5-6.7 2.1-1.3.4-2.4.7-3.3 1-.5.2-1 .3-1.3.4-.2.1-.3.1-.4.1-.9.3-1.7.6-2.3.9-3 1.6-4.3 4-3.7 7.4.2 1.1 1 3.2 4 4.1.7.2 1.5.3 2.4.4h.8c2 0 3.8-.4 4-.4h.2c1.6-.4 3.3-.9 5.1-1.4 1-.3 2.1-.6 3.1-.8l3.6-.9c-1.5 1-2.9 2-4 2.8-1.2.8-2.1 1.5-2.4 1.7l-.1.1c-.4.3-.8.7-1.1 1-3.1 3.1-2.4 6.1-1.2 8.3.4.6.8 1.1 1.3 1.5.9.7 2 1 3.4 1h.4c3.2-.2 6.7-2.3 7.5-2.8 2.8-1.7 7.3-4.4 10.6-6.4 1-.6 1.9-1.2 2.7-1.6.7-.4 1.3-.8 1.5-.9.3-.2.5-.3.7-.3H133l10.5-.8h.2c11.5-2 16.8-6.8 18.8-9.3l23.2.1z"/>

    <path d="M101 12.8c48.6 0 88.2 39.6 88.2 88.2s-39.6 88.2-88.2 88.2-88.2-39.6-88.2-88.2S52.4 12.8 101 12.8M101 1C45.8 1 1 45.8 1 101s44.8 100 100 100 100-44.8 100-100S156.2 1 101 1z"/>

  </g>


</svg>